<mxfile host="app.diagrams.net" agent="Mozilla/5.0 (Windows NT 10.0; Win64; x64) AppleWebKit/537.36 (KHTML, like Gecko) Chrome/131.0.0.0 Safari/537.36 OPR/116.0.0.0" version="26.0.15">
  <diagram id="llquCvDjDa5xM2ESyYwQ" name="Page-1">
    <mxGraphModel dx="303" dy="565" grid="0" gridSize="10" guides="1" tooltips="1" connect="1" arrows="1" fold="1" page="1" pageScale="1" pageWidth="850" pageHeight="1100" math="0" shadow="0" adaptiveColors="simple">
      <root>
        <mxCell id="0" />
        <mxCell id="1" parent="0" />
        <mxCell id="5KsK36yTaGeS-g4vnIt7-17" value="UsuÃ¡rio" style="swimlane;fontStyle=1;align=center;verticalAlign=top;childLayout=stackLayout;horizontal=1;startSize=26;horizontalStack=0;resizeParent=1;resizeParentMax=0;resizeLast=0;collapsible=1;marginBottom=0;whiteSpace=wrap;html=1;" parent="1" vertex="1">
          <mxGeometry x="1360" y="367" width="160" height="130" as="geometry" />
        </mxCell>
        <mxCell id="5KsK36yTaGeS-g4vnIt7-18" value="+ id: int&lt;div&gt;+ username: String&lt;/div&gt;&lt;div&gt;+ bloqueado: boolean&lt;/div&gt;" style="text;strokeColor=none;fillColor=none;align=left;verticalAlign=top;spacingLeft=4;spacingRight=4;overflow=hidden;rotatable=0;points=[[0,0.5],[1,0.5]];portConstraint=eastwest;whiteSpace=wrap;html=1;" parent="5KsK36yTaGeS-g4vnIt7-17" vertex="1">
          <mxGeometry y="26" width="160" height="54" as="geometry" />
        </mxCell>
        <mxCell id="5KsK36yTaGeS-g4vnIt7-19" value="" style="line;strokeWidth=1;fillColor=none;align=left;verticalAlign=middle;spacingTop=-1;spacingLeft=3;spacingRight=3;rotatable=0;labelPosition=right;points=[];portConstraint=eastwest;strokeColor=inherit;" parent="5KsK36yTaGeS-g4vnIt7-17" vertex="1">
          <mxGeometry y="80" width="160" height="8" as="geometry" />
        </mxCell>
        <mxCell id="5KsK36yTaGeS-g4vnIt7-20" value="+ login(): boolean&lt;div&gt;+ logout(): void&lt;/div&gt;" style="text;strokeColor=none;fillColor=none;align=left;verticalAlign=top;spacingLeft=4;spacingRight=4;overflow=hidden;rotatable=0;points=[[0,0.5],[1,0.5]];portConstraint=eastwest;whiteSpace=wrap;html=1;" parent="5KsK36yTaGeS-g4vnIt7-17" vertex="1">
          <mxGeometry y="88" width="160" height="42" as="geometry" />
        </mxCell>
        <mxCell id="5KsK36yTaGeS-g4vnIt7-25" value="Administrador" style="swimlane;fontStyle=1;align=center;verticalAlign=top;childLayout=stackLayout;horizontal=1;startSize=26;horizontalStack=0;resizeParent=1;resizeParentMax=0;resizeLast=0;collapsible=1;marginBottom=0;whiteSpace=wrap;html=1;" parent="1" vertex="1">
          <mxGeometry x="948" y="409" width="160" height="60" as="geometry" />
        </mxCell>
        <mxCell id="5KsK36yTaGeS-g4vnIt7-27" value="" style="line;strokeWidth=1;fillColor=none;align=left;verticalAlign=middle;spacingTop=-1;spacingLeft=3;spacingRight=3;rotatable=0;labelPosition=right;points=[];portConstraint=eastwest;strokeColor=inherit;" parent="5KsK36yTaGeS-g4vnIt7-25" vertex="1">
          <mxGeometry y="26" width="160" height="8" as="geometry" />
        </mxCell>
        <mxCell id="5KsK36yTaGeS-g4vnIt7-28" value="+ gerenciarUsuarios(): void" style="text;strokeColor=none;fillColor=none;align=left;verticalAlign=top;spacingLeft=4;spacingRight=4;overflow=hidden;rotatable=0;points=[[0,0.5],[1,0.5]];portConstraint=eastwest;whiteSpace=wrap;html=1;" parent="5KsK36yTaGeS-g4vnIt7-25" vertex="1">
          <mxGeometry y="34" width="160" height="26" as="geometry" />
        </mxCell>
        <mxCell id="5KsK36yTaGeS-g4vnIt7-32" value="Extends" style="endArrow=block;endSize=16;endFill=0;html=1;rounded=0;exitX=1.004;exitY=0.44;exitDx=0;exitDy=0;entryX=0.007;entryY=0.791;entryDx=0;entryDy=0;entryPerimeter=0;exitPerimeter=0;" parent="1" source="5KsK36yTaGeS-g4vnIt7-25" target="5KsK36yTaGeS-g4vnIt7-18" edge="1">
          <mxGeometry width="160" relative="1" as="geometry">
            <mxPoint x="1262" y="589" as="sourcePoint" />
            <mxPoint x="1422" y="589" as="targetPoint" />
          </mxGeometry>
        </mxCell>
        <mxCell id="5KsK36yTaGeS-g4vnIt7-37" value="UserController" style="swimlane;fontStyle=1;align=center;verticalAlign=top;childLayout=stackLayout;horizontal=1;startSize=26;horizontalStack=0;resizeParent=1;resizeParentMax=0;resizeLast=0;collapsible=1;marginBottom=0;whiteSpace=wrap;html=1;" parent="1" vertex="1">
          <mxGeometry x="1295" y="175" width="290" height="90" as="geometry" />
        </mxCell>
        <mxCell id="5KsK36yTaGeS-g4vnIt7-39" value="" style="line;strokeWidth=1;fillColor=none;align=left;verticalAlign=middle;spacingTop=-1;spacingLeft=3;spacingRight=3;rotatable=0;labelPosition=right;points=[];portConstraint=eastwest;strokeColor=inherit;" parent="5KsK36yTaGeS-g4vnIt7-37" vertex="1">
          <mxGeometry y="26" width="290" height="8" as="geometry" />
        </mxCell>
        <mxCell id="5KsK36yTaGeS-g4vnIt7-40" value="&lt;div&gt;+ bloquearUsuario(id: int): void&lt;div&gt;+ buscarUsuario(id: int): Usuario&lt;/div&gt;&lt;/div&gt;&lt;div&gt;+ desbloquearUsuario(id: int): void&lt;/div&gt;" style="text;strokeColor=none;fillColor=none;align=left;verticalAlign=top;spacingLeft=4;spacingRight=4;overflow=hidden;rotatable=0;points=[[0,0.5],[1,0.5]];portConstraint=eastwest;whiteSpace=wrap;html=1;" parent="5KsK36yTaGeS-g4vnIt7-37" vertex="1">
          <mxGeometry y="34" width="290" height="56" as="geometry" />
        </mxCell>
        <mxCell id="5KsK36yTaGeS-g4vnIt7-41" value="AdminPanel" style="swimlane;fontStyle=1;align=center;verticalAlign=top;childLayout=stackLayout;horizontal=1;startSize=26;horizontalStack=0;resizeParent=1;resizeParentMax=0;resizeLast=0;collapsible=1;marginBottom=0;whiteSpace=wrap;html=1;" parent="1" vertex="1">
          <mxGeometry x="923" y="184" width="210" height="81" as="geometry" />
        </mxCell>
        <mxCell id="5KsK36yTaGeS-g4vnIt7-43" value="" style="line;strokeWidth=1;fillColor=none;align=left;verticalAlign=middle;spacingTop=-1;spacingLeft=3;spacingRight=3;rotatable=0;labelPosition=right;points=[];portConstraint=eastwest;strokeColor=inherit;" parent="5KsK36yTaGeS-g4vnIt7-41" vertex="1">
          <mxGeometry y="26" width="210" height="8" as="geometry" />
        </mxCell>
        <mxCell id="5KsK36yTaGeS-g4vnIt7-44" value="+ exibirListaUsuarios()&lt;div&gt;+ enviarComandoBloqueio()&lt;/div&gt;" style="text;strokeColor=none;fillColor=none;align=left;verticalAlign=top;spacingLeft=4;spacingRight=4;overflow=hidden;rotatable=0;points=[[0,0.5],[1,0.5]];portConstraint=eastwest;whiteSpace=wrap;html=1;" parent="5KsK36yTaGeS-g4vnIt7-41" vertex="1">
          <mxGeometry y="34" width="210" height="47" as="geometry" />
        </mxCell>
        <mxCell id="5KsK36yTaGeS-g4vnIt7-48" value="Use" style="endArrow=open;endSize=12;dashed=1;html=1;rounded=0;exitX=1.002;exitY=0.051;exitDx=0;exitDy=0;exitPerimeter=0;entryX=0.003;entryY=0.196;entryDx=0;entryDy=0;entryPerimeter=0;" parent="1" source="5KsK36yTaGeS-g4vnIt7-44" target="5KsK36yTaGeS-g4vnIt7-40" edge="1">
          <mxGeometry x="-0.006" width="160" relative="1" as="geometry">
            <mxPoint x="1482" y="199" as="sourcePoint" />
            <mxPoint x="1642" y="199" as="targetPoint" />
            <mxPoint as="offset" />
          </mxGeometry>
        </mxCell>
        <mxCell id="5KsK36yTaGeS-g4vnIt7-49" value="" style="endArrow=open;endFill=1;endSize=12;html=1;rounded=0;exitX=0.494;exitY=1.002;exitDx=0;exitDy=0;exitPerimeter=0;entryX=0.5;entryY=0;entryDx=0;entryDy=0;" parent="1" source="5KsK36yTaGeS-g4vnIt7-40" target="5KsK36yTaGeS-g4vnIt7-17" edge="1">
          <mxGeometry width="160" relative="1" as="geometry">
            <mxPoint x="1392" y="439" as="sourcePoint" />
            <mxPoint x="1552" y="439" as="targetPoint" />
          </mxGeometry>
        </mxCell>
      </root>
    </mxGraphModel>
  </diagram>
</mxfile>
